<svg width="1080" height="1080" viewBox="0 0 1080 1080" fill="none" xmlns="http://www.w3.org/2000/svg">
<rect width="1080" height="1080"/>
<path d="M744.095 740.451C744.095 818.33 680.961 881.464 603.082 881.464C525.203 881.464 462.069 818.33 462.069 740.451C462.069 662.572 525.203 599.438 603.082 599.438C680.961 599.438 744.095 662.572 744.095 740.451Z" fill="#E11D48"/>
<path fill-rule="evenodd" clip-rule="evenodd" d="M775.631 740.451C775.631 835.747 698.379 913 603.082 913C507.786 913 430.533 835.747 430.533 740.451C430.533 645.155 507.786 567.902 603.082 567.902C698.379 567.902 775.631 645.155 775.631 740.451ZM603.082 881.464C680.961 881.464 744.095 818.33 744.095 740.451C744.095 662.572 680.961 599.438 603.082 599.438C525.203 599.438 462.069 662.572 462.069 740.451C462.069 818.33 525.203 881.464 603.082 881.464Z" fill="#9F1239"/>
<mask id="mask0_26_268" style="mask-type:alpha" maskUnits="userSpaceOnUse" x="462" y="599" width="283" height="283">
<path d="M744.095 740.451C744.095 818.33 680.961 881.464 603.082 881.464C525.203 881.464 462.069 818.33 462.069 740.451C462.069 662.572 525.203 599.438 603.082 599.438C680.961 599.438 744.095 662.572 744.095 740.451Z" fill="#DE1C47"/>
</mask>
<g mask="url(#mask0_26_268)">
<path d="M642.046 792.971C693.121 779.222 739.332 709.064 697.276 615.554L770.748 647.903L788.989 845.033L666.874 930.962C621.778 913.945 514.359 899.623 529.053 831.891C539.249 784.894 578.202 810.157 642.046 792.971Z" fill="#BE123C"/>
<path d="M586.391 665.628C586.391 681.839 573.249 694.981 557.037 694.981C540.825 694.981 527.683 681.839 527.683 665.628C527.683 649.416 540.825 636.274 557.037 636.274C573.249 636.274 586.391 649.416 586.391 665.628Z" fill="white" fill-opacity="0.2"/>
<path fill-rule="evenodd" clip-rule="evenodd" d="M607.204 616.999C614.692 612.552 624.366 615.018 628.812 622.506C631.603 627.205 644.995 640.792 670.541 635.434C679.064 633.647 687.422 639.107 689.21 647.63C690.997 656.153 685.537 664.512 677.014 666.299C636.451 674.806 610.376 653.226 601.696 638.608C597.25 631.12 599.716 621.445 607.204 616.999Z" fill="#9F1239"/>
</g>
<path d="M533.439 626.49C533.439 704.369 470.306 767.503 392.426 767.503C314.547 767.503 251.414 704.369 251.414 626.49C251.414 548.611 314.547 485.477 392.426 485.477C470.306 485.477 533.439 548.611 533.439 626.49Z" fill="#E11D48"/>
<path fill-rule="evenodd" clip-rule="evenodd" d="M564.975 626.49C564.975 721.786 487.723 799.039 392.426 799.039C297.13 799.039 219.877 721.786 219.877 626.49C219.877 531.193 297.13 453.94 392.426 453.94C487.723 453.94 564.975 531.193 564.975 626.49ZM392.426 767.502C470.305 767.502 533.439 704.369 533.439 626.49C533.439 548.61 470.305 485.477 392.426 485.477C314.547 485.477 251.413 548.61 251.413 626.49C251.413 704.369 314.547 767.502 392.426 767.502Z" fill="#9F1239"/>
<mask id="mask1_26_268" style="mask-type:alpha" maskUnits="userSpaceOnUse" x="251" y="485" width="283" height="283">
<path d="M533.439 626.49C533.439 704.369 470.306 767.503 392.426 767.503C314.547 767.503 251.414 704.369 251.414 626.49C251.414 548.611 314.547 485.477 392.426 485.477C470.306 485.477 533.439 548.611 533.439 626.49Z" fill="#DE1C47"/>
</mask>
<g mask="url(#mask1_26_268)">
<path d="M431.391 679.01C482.466 665.261 528.676 595.103 486.621 501.593L560.092 533.942L578.333 731.072L456.219 817.001C411.123 799.984 303.703 785.662 318.397 717.93C328.593 670.933 367.547 696.196 431.391 679.01Z" fill="#BE123C"/>
<path d="M375.735 551.666C375.735 567.878 362.593 581.02 346.381 581.02C330.17 581.02 317.028 567.878 317.028 551.666C317.028 535.455 330.17 522.313 346.381 522.313C362.593 522.313 375.735 535.455 375.735 551.666Z" fill="white" fill-opacity="0.2"/>
<path fill-rule="evenodd" clip-rule="evenodd" d="M405.883 518.978C414.32 516.818 422.909 521.907 425.069 530.343C426.424 535.637 435.452 552.444 461.473 554.491C470.155 555.174 476.639 562.766 475.956 571.447C475.273 580.129 467.682 586.613 459 585.93C417.683 582.68 398.734 554.634 394.518 538.164C392.358 529.727 397.447 521.137 405.883 518.978Z" fill="#9F1239"/>
</g>
<path fill-rule="evenodd" clip-rule="evenodd" d="M501.938 202.727C508.02 199.535 515.469 200.647 520.353 205.477C546.743 231.573 598.641 287.844 635.459 363.384C672.354 439.084 694.566 535.188 659.469 639.573C656.693 647.827 647.752 652.269 639.497 649.494C631.243 646.718 626.801 637.777 629.577 629.522C661.245 535.338 641.632 448.03 607.11 377.201C584.795 331.417 556.443 292.96 532.357 264.733C540.199 331.181 537.796 385.091 526.499 429.971C512.348 486.193 484.479 527.286 447.25 560.547C440.756 566.35 430.788 565.789 424.986 559.294C419.184 552.8 419.745 542.832 426.239 537.03C459.229 507.555 483.448 471.811 495.917 422.273C508.491 372.317 509.345 307.4 493.74 219.444C492.54 212.681 495.856 205.919 501.938 202.727Z" fill="#27272A"/>
<path d="M498.066 216.453C568.704 184.05 725.469 168.154 790.542 362.641C595.927 427.328 514.547 292.401 498.066 216.453Z" fill="#059669"/>
<path fill-rule="evenodd" clip-rule="evenodd" d="M792.056 378.739C794.063 378.091 793.438 378.384 794.633 377.985C798.861 376.575 802.095 373.547 803.875 369.818C805.789 366.157 806.017 362.033 805.246 357.657C804.847 356.463 804.789 355.534 804.326 354.189C770.192 255.029 711.835 207.026 650.785 189.32C591.841 172.224 532.768 184.052 494.759 200.659C494.731 200.665 494.704 200.671 494.677 200.676C489.708 201.744 485.793 205.045 483.758 209.301C481.575 213.484 481.285 218.596 483.413 223.211C483.425 223.237 483.437 223.262 483.448 223.287C492.98 263.656 518.976 318.004 568.028 354.889C618.834 393.091 692.256 410.955 792.056 378.739ZM770.146 352.446C738.64 270.194 689.712 233.446 642 219.608C596.292 206.351 549.603 213.527 516.73 225.782C526.659 259.43 548.944 301.081 586.982 329.683C626.687 359.539 685.447 376.616 770.146 352.446Z" fill="#047857"/>
<path fill-rule="evenodd" clip-rule="evenodd" d="M492.206 206.819C498.61 202.166 507.575 203.585 512.229 209.99C566.909 285.242 676.715 329.63 793.124 344.636C800.976 345.648 801.63 353.662 800.618 361.513C799.606 369.365 797.31 374.083 789.458 373.07C670.116 357.686 550.619 311.596 489.035 226.842C484.382 220.438 485.801 211.473 492.206 206.819Z" fill="#047857"/>
</svg>
